<?xml version="1.0" encoding="UTF-8"?>
<svg class="d-inline-block align-text-top" style="width: 50px; height:50px;" xmlns="http://www.w3.org/2000/svg" viewBox="0 0 1486.54 1441.4">
  <defs>
    <style>
      .cls-1, .cls-2 {
        letter-spacing: .05em;
      }

      .cls-3 {
        font-size: 200px;
      }

      .cls-3, .cls-2 {
        font-family: Roboto-Bold, Roboto;
        font-weight: 700;
      }

      .cls-2 {
        font-size: 600px;
      }

      .cls-4 {
        letter-spacing: .03em;
      }
      @media ( prefers-color-scheme: dark ) {
        path {
          fill: white;
        }
        text {
          color: white;
        }
      }
    </style>
  </defs>
  <g id="svg2579_copy" data-name="svg2579 copy">
    <path id="path2939-4" d="m743.27,45.69c-59.81,48.63-136.2,78.69-219.38,78.69s-159.65-29.82-219.47-78.66L56.12,265.13c84.24,63.71,138.72,164.82,138.72,278.31,0,64.13-17.49,124.43-47.78,176.09-6.3,10.75-13.18,20.9-20.38,30.62-2.49,4.17-4.89,8.31-7.09,12.38v.03c-2.68,4.94-5.28,9.93-7.72,15-2.43,5.03-4.75,10.21-6.97,15.47-2.21,5.23-4.27,10.46-6.22,15.78-1.97,5.38-3.82,10.81-5.5,16.22-1.7,5.46-3.29,10.97-4.72,16.53-1.42,5.5-2.67,11.1-3.84,16.84-1.17,5.71-2.22,11.45-3.09,17.19-.88,5.78-1.62,11.62-2.22,17.47-.59,5.84-1.04,11.74-1.34,17.72-.3,5.96-.44,11.94-.44,17.97s.14,12.01.44,17.97c.3,5.98.75,11.88,1.34,17.72.59,5.85,1.34,11.69,2.22,17.47.88,5.74,1.93,11.45,3.09,17.16,1.17,5.74,2.43,11.37,3.84,16.87,1.43,5.57,3.02,11.07,4.72,16.53,1.68,5.41,3.53,10.84,5.5,16.22,1.95,5.32,4.01,10.55,6.22,15.78,2.22,5.26,4.54,10.43,6.97,15.47,2.45,5.07,5.03,10.05,7.72,15,2.68,4.94,5.46,9.83,8.37,14.62,2.94,4.85,5.96,9.57,9.06,14.16l.12.19c3.03,4.47,6.24,8.95,9.62,13.47,3.39,4.54,6.84,8.97,10.34,13.22,3.51,4.25,7.16,8.44,10.91,12.56l.12.09c3.77,4.14,7.59,8.16,11.53,12.09,3.94,3.94,7.98,7.8,12.12,11.56l.31.28c4.06,3.68,8.17,7.24,12.34,10.69,4.25,3.51,8.65,6.95,13.19,10.34,4.58,3.43,9.12,6.69,13.66,9.75,4.59,3.1,9.31,6.12,14.16,9.06,4.79,2.91,9.69,5.72,14.62,8.41,4.95,2.69,9.93,5.24,15,7.69,5.03,2.42,10.21,4.74,15.47,6.97,5.23,2.21,10.49,4.3,15.81,6.25,1.52.56,4,1.33,6.84,2.28,6.55,1.83,13.06,3.62,19.53,5.28,7.8,2.01,15.52,3.93,23.25,5.72,6.43,1.48,13.09,2.9,19.88,4.31h.03c1.86.39,3.08.67,3.62.78,7.92,1.62,15.79,3.15,23.69,4.56,7.91,1.41,15.93,2.71,23.97,3.94,8.04,1.23,16.05,2.38,24.09,3.41,8.07,1.03,16.18,1.95,24.31,2.78v-.03c8.12.82,16.29,1.56,24.47,2.19,7.47.57,15.05,1,22.72,1.41.17-.02-.5-.03,1.12-.03,8.61,0,16.84.47,24.72,1.12,76.5,6.34,144.78,41.62,194.66,93.97,49.88-52.35,118.15-87.63,194.66-93.97,7.87-.65,16.11-1.12,24.72-1.12,1.62,0,.95.01,1.12.03,7.67-.4,15.25-.84,22.72-1.41,8.18-.62,16.35-1.36,24.47-2.19v.03c8.14-.83,16.24-1.76,24.31-2.78,8.05-1.02,16.06-2.18,24.09-3.41,8.04-1.23,16.06-2.53,23.97-3.94,7.89-1.41,15.77-2.94,23.69-4.56.55-.11,1.77-.39,3.62-.78h.03c6.79-1.41,13.45-2.83,19.88-4.31,7.73-1.78,15.45-3.71,23.25-5.72,6.47-1.66,12.98-3.45,19.53-5.28,2.84-.95,5.33-1.73,6.84-2.28,5.32-1.95,10.58-4.04,15.81-6.25,5.26-2.22,10.44-4.54,15.47-6.97,5.07-2.44,10.05-5,15-7.69,4.94-2.68,9.83-5.49,14.62-8.41,4.84-2.94,9.57-5.96,14.16-9.06,4.53-3.06,9.07-6.32,13.66-9.75,4.54-3.39,8.94-6.84,13.19-10.34,4.17-3.44,8.29-7.01,12.34-10.69l.31-.28c4.14-3.77,8.19-7.63,12.12-11.56,3.94-3.94,7.77-7.95,11.53-12.09l.12-.09c3.75-4.12,7.4-8.32,10.91-12.56,3.51-4.25,6.95-8.68,10.34-13.22,3.38-4.52,6.6-9,9.62-13.47l.12-.19c3.1-4.59,6.12-9.31,9.06-14.16,2.91-4.8,5.69-9.69,8.38-14.62,2.69-4.95,5.27-9.93,7.72-15,2.43-5.03,4.75-10.21,6.97-15.47,2.21-5.23,4.27-10.46,6.22-15.78,1.97-5.38,3.82-10.81,5.5-16.22,1.7-5.46,3.29-10.97,4.72-16.53,1.42-5.5,2.67-11.13,3.84-16.87,1.17-5.71,2.22-11.42,3.09-17.16.88-5.78,1.62-11.62,2.22-17.47.59-5.84,1.04-11.74,1.34-17.72.3-5.96.44-11.94.44-17.97s-.14-12.01-.44-17.97c-.3-5.98-.75-11.88-1.34-17.72-.59-5.85-1.34-11.69-2.22-17.47-.88-5.74-1.93-11.48-3.09-17.19-1.17-5.74-2.43-11.34-3.84-16.84-1.43-5.57-3.02-11.07-4.72-16.53-1.68-5.41-3.53-10.83-5.5-16.22-1.95-5.32-4.01-10.55-6.22-15.78-2.22-5.26-4.54-10.44-6.97-15.47-2.44-5.07-5.03-10.06-7.72-15v-.03c-2.21-4.06-4.6-8.21-7.09-12.38-7.19-9.73-14.07-19.88-20.38-30.62-30.3-51.66-47.78-111.96-47.78-176.09,0-113.5,54.47-214.61,138.72-278.31l-248.31-219.41c-59.82,48.83-136.13,78.66-219.47,78.66s-159.57-30.06-219.38-78.69Zm0,42.25h0c61.92,43.68,137.65,70.19,219.34,70.19s156.12-25.8,217.75-68.88l198.5,175.34c-49.94,46.9-87.34,107.09-106.53,174.78H214.2c-19.18-67.69-56.58-127.88-106.53-174.78l198.5-175.34c61.63,43.07,136.76,68.88,217.75,68.88s157.42-26.51,219.34-70.19ZM222.12,473.13h1042.29c-4.26,22.81-6.49,46.31-6.49,70.31,0,70.27,19.21,136.5,52.44,193.16,6.61,11.28,13.71,21.76,20.97,31.69,1.92,3.22,3.73,6.35,5.38,9.34l.56,1.03c2.49,4.58,4.85,9.11,7,13.56,2.15,4.46,4.24,9.15,6.28,13.97,1.99,4.72,3.83,9.4,5.59,14.22,1.79,4.9,3.47,9.82,4.97,14.66,1.56,5.01,3.01,9.97,4.28,14.91,1.24,4.81,2.34,9.84,3.44,15.19,1.07,5.24,2.04,10.45,2.81,15.53.8,5.22,1.46,10.49,2,15.78.53,5.27.94,10.61,1.22,16.03.27,5.33.38,10.73.38,16.25s-.11,10.92-.38,16.25c-.27,5.42-.68,10.77-1.22,16.03-.54,5.29-1.2,10.57-2,15.78-.77,5.07-1.74,10.21-2.81,15.47-1.1,5.37-2.21,10.47-3.44,15.25-1.27,4.93-2.72,9.9-4.28,14.91-1.5,4.83-3.18,9.76-4.97,14.66-1.77,4.82-3.6,9.5-5.59,14.22-2.04,4.82-4.13,9.51-6.28,13.97-2.15,4.47-4.51,8.95-7,13.53-2.48,4.56-4.99,8.99-7.56,13.22h.03c-2.68,4.41-5.41,8.67-8.19,12.78l-.06.09-.06.09-.12.19c-2.63,3.88-5.48,7.84-8.56,11.97-3.15,4.21-6.3,8.24-9.38,11.97h.03c-2.82,3.41-5.84,6.85-8.94,10.28l-1.06,1.16c-3.4,3.75-6.84,7.34-10.41,10.91-3.52,3.52-7.15,6.98-10.84,10.34-.04.04-.08.08-.12.12l-.19.16-.06.06-.03.03c-3.68,3.34-7.41,6.56-11.16,9.66-3.79,3.13-7.76,6.24-11.91,9.34-4.24,3.17-8.36,6.12-12.34,8.81-4.11,2.78-8.37,5.51-12.78,8.19-4.32,2.62-8.75,5.17-13.22,7.59-4.49,2.44-8.97,4.74-13.53,6.94-4.46,2.15-9.14,4.24-13.97,6.28-4.78,2.02-9.53,3.92-14.28,5.66.15-.06-2.45.81-5.09,1.69-6.16,1.72-12.22,3.36-18.09,4.88-7.65,1.97-15.07,3.84-22.41,5.53-4.98,1.15-10.37,2.29-15.81,3.44l-2.19.47c-.41.09-.77.16-1.19.25h-.03c-2.19.45-4.26.9-3.5.75-7.7,1.58-15.29,3.06-22.84,4.41-7.53,1.35-15.3,2.58-23.16,3.78-7.85,1.2-15.58,2.34-23.25,3.31-6.94.88-13.92,1.65-20.91,2.38l-2.56.25c-7.87.8-15.74,1.53-23.59,2.12-.01,0-.02,0-.03,0-6.38.48-13.05.86-19.84,1.22-1.37-.08-.81.06-1.44.06-9.85,0-19.03.55-27.5,1.25-73.2,6.06-139.54,35.99-191.84,81.12-52.3-45.14-118.64-75.06-191.84-81.12-8.47-.7-27.57-1.39-28.94-1.31-6.79-.36-13.46-.73-19.84-1.22-.01,0-.02,0-.03,0-7.85-.6-15.72-1.33-23.59-2.12l-2.56-.25c-6.99-.73-13.96-1.49-20.91-2.38-7.67-.98-15.4-2.11-23.25-3.31-7.85-1.2-15.62-2.44-23.16-3.78-7.55-1.35-15.14-2.83-22.84-4.41.76.15-1.31-.29-3.5-.75h-.03c-.41-.09-.78-.16-1.19-.25l-2.19-.47c-5.44-1.14-10.84-2.29-15.81-3.44-7.34-1.69-14.76-3.56-22.41-5.53-5.87-1.51-11.93-3.16-18.09-4.88-2.64-.88-5.24-1.74-5.09-1.69-4.75-1.74-9.51-3.64-14.28-5.66-4.82-2.04-9.51-4.13-13.97-6.28-4.57-2.2-9.04-4.5-13.53-6.94-4.47-2.43-8.9-4.97-13.22-7.59-4.41-2.68-8.67-5.41-12.78-8.19-3.99-2.69-8.1-5.64-12.34-8.81-4.15-3.1-8.12-6.22-11.91-9.34-3.75-3.1-7.47-6.32-11.16-9.66l-.03-.03-.06-.06-.19-.16s-.08-.08-.12-.12c-3.69-3.36-7.32-6.82-10.84-10.34-3.56-3.57-7-7.16-10.41-10.91l-1.06-1.16c-3.09-3.43-6.12-6.87-8.94-10.28h.03c-3.08-3.73-6.23-7.76-9.38-11.97-3.09-4.13-5.93-8.09-8.56-11.97l-.12-.19-.06-.09-.06-.09c-2.78-4.11-5.51-8.37-8.19-12.78h.03c-2.57-4.23-5.09-8.66-7.56-13.22-2.49-4.59-4.85-9.06-7-13.53-2.15-4.46-4.24-9.15-6.28-13.97-1.99-4.72-3.83-9.4-5.59-14.22-1.79-4.9-3.47-9.83-4.97-14.66-1.56-5.01-3.01-9.97-4.28-14.91-1.23-4.78-2.34-9.88-3.44-15.25-1.08-5.26-2.04-10.4-2.81-15.47-.8-5.22-1.46-10.49-2-15.78-.53-5.27-.94-10.61-1.22-16.03-.27-5.33-.38-10.73-.38-16.25s.1-10.92.38-16.25c.27-5.42.68-10.77,1.22-16.03.54-5.29,1.2-10.57,2-15.78.78-5.09,1.74-10.29,2.81-15.53,1.09-5.35,2.2-10.38,3.44-15.19,1.27-4.93,2.72-9.89,4.28-14.91,1.5-4.83,3.18-9.76,4.97-14.66,1.77-4.82,3.6-9.5,5.59-14.22,2.04-4.82,4.13-9.51,6.28-13.97,2.15-4.46,4.51-8.98,7-13.56l.56-1.03c1.65-3,3.45-6.12,5.38-9.34,7.26-9.93,14.36-20.41,20.97-31.69,33.23-56.66,52.44-122.89,52.44-193.16,0-24-2.23-47.5-6.49-70.31Z"/>
  </g>
  <g id="Layer_3" data-name="Layer 3">
    <path d="m681.79,1253.6c6.53-.6,24.74-2.16,30.45-10.97.58-.89,5.34-8.79,5.34-8.83l19.66,7.49c.42,2.15-11.1,18.25-13.2,19.99-2.67,2.22-5.23,3.44-7.94,4.46-9.11,3.42-16.94,6.19-27.26,7.93l-7.05-20.07h0Zm40.67-80.47l-8.41,30.45c-2,9.85.16,18.18,9.43,23.93,4.83,3,6.19,2.85,11.72,4.45l25.54,5.86c1.52.34,31.86,24.91,34.71,27.36l13.1-11.8c1.9-1.71-30.23-30.07-35.83-32.85-26.59-13.19-27.71,1.89-17.7-36.16,5.08,4.96,8.93,10.49,18.57,14.27,11.73,3,18.28-1.14,28.04-4.3l14.5-5.22-6.26-17.68-14.5,5.22c-.41.14-1.45.52-3.27,1.15-4.52,1.1-8.52,3.97-11.38,2.59-9.49-4.59-15.12-23.95-41.61-26.06-3.98-.31-11.39-1.31-17.17-1.48-21.48-1.25-28.81,6.81-40.57,18.88-5.41,5.23-5.49,5.18-10.95,10.37l13.9,13.83c5.5-5.23,5.63-5.2,11.08-10.49,4.94-4.72,8.33-9.6,13.41-11.68,3.3-1.36,7.56-.79,12.62-.7.36.03.7.04,1.04.05h0Zm24.8-66.71c10.68-3.46,22.15,2.38,25.63,13.08,3.46,10.68-2.38,22.15-13.08,25.63-10.68,3.46-22.15-2.38-25.63-13.08-3.46-10.69,2.4-22.17,13.08-25.63h0Z"/>
  </g>
  <g id="Layer_2" data-name="Layer 2">
    <text class="cls-3" transform="translate(207.86 343.13)"><tspan class="cls-1" x="0" y="0">RUN </tspan><tspan class="cls-4" x="490.29" y="0">W</tspan><tspan class="cls-1" x="671" y="0">ALK</tspan></text>
    <text class="cls-2" transform="translate(194.36 1054.63)"><tspan x="0" y="0">812</tspan></text>
  </g>
</svg>