<?xml version="1.0" standalone="no"?>
<!DOCTYPE svg PUBLIC "-//W3C//DTD SVG 20010904//EN"
 "http://www.w3.org/TR/2001/REC-SVG-20010904/DTD/svg10.dtd">
<svg version="1.0" xmlns="http://www.w3.org/2000/svg"
 width="1487.000000pt" height="1487.000000pt" viewBox="0 0 1487.000000 1487.000000"
 preserveAspectRatio="xMidYMid meet">
<metadata>
Created by potrace 1.14, written by Peter Selinger 2001-2017
</metadata>
<g transform="translate(0.000000,1487.000000) scale(0.100000,-0.100000)"
fill="#000000" stroke="none">
<path d="M2992 14138 c-93 -85 -129 -117 -272 -243 -80 -70 -176 -155 -214
-189 -38 -33 -93 -81 -121 -106 -72 -64 -183 -162 -305 -270 -58 -51 -119
-104 -135 -119 -97 -84 -292 -257 -306 -271 -9 -8 -42 -37 -74 -65 -33 -27
-69 -59 -81 -70 -12 -11 -53 -47 -90 -80 -37 -33 -78 -69 -90 -80 -12 -11 -35
-31 -50 -45 -192 -167 -281 -245 -289 -254 -5 -6 -39 -36 -75 -66 -35 -30 -71
-62 -80 -70 -31 -29 -175 -158 -207 -185 -18 -15 -33 -30 -33 -34 0 -4 33 -33
73 -65 98 -77 305 -272 397 -375 374 -416 631 -879 778 -1401 31 -110 41 -149
48 -190 3 -14 7 -32 9 -40 7 -23 35 -190 41 -240 3 -25 7 -52 9 -60 19 -73 27
-534 12 -705 -7 -78 -32 -263 -52 -375 -3 -19 -15 -71 -26 -115 -10 -44 -21
-89 -24 -100 -2 -11 -13 -51 -24 -90 -18 -63 -34 -110 -91 -270 -71 -196 -228
-500 -355 -685 -116 -169 -135 -200 -193 -310 -120 -226 -227 -510 -292 -768
-16 -64 -31 -128 -33 -142 -3 -14 -12 -63 -20 -110 -9 -47 -19 -112 -23 -145
-3 -33 -8 -69 -10 -80 -7 -35 -18 -276 -18 -380 0 -102 11 -326 18 -361 2 -10
7 -48 11 -84 4 -36 9 -74 11 -85 3 -11 7 -36 10 -55 3 -19 7 -42 9 -50 3 -8 7
-33 11 -55 3 -22 8 -43 10 -46 2 -3 6 -21 9 -40 3 -19 8 -42 11 -51 3 -9 7
-27 9 -39 9 -46 99 -318 137 -414 95 -240 245 -514 406 -740 47 -66 88 -122
91 -125 4 -3 26 -30 51 -60 354 -435 864 -808 1393 -1020 142 -56 475 -149
697 -194 14 -3 113 -23 220 -45 181 -36 229 -45 320 -57 19 -3 58 -9 85 -14
28 -5 73 -12 100 -15 28 -3 61 -8 75 -10 89 -14 237 -30 365 -40 39 -3 81 -8
95 -10 42 -6 198 -16 320 -20 223 -7 349 -19 540 -51 190 -31 436 -107 675
-209 296 -126 656 -371 900 -612 l79 -79 96 92 c329 320 740 567 1185 713 154
50 362 98 505 116 25 3 61 8 80 10 50 7 186 15 326 20 122 4 260 12 324 20 19
2 71 7 115 10 44 4 91 8 105 10 14 2 50 6 80 10 333 37 752 111 1089 191 79
19 153 36 165 38 71 15 289 81 364 110 643 253 1185 676 1584 1237 290 407
502 907 583 1374 2 17 7 41 10 55 5 23 7 38 20 130 3 19 8 64 11 100 3 36 8
83 10 105 6 59 6 431 0 500 -8 85 -16 163 -22 210 -4 35 -9 63 -29 182 -38
227 -139 546 -249 793 -69 153 -196 383 -227 410 -10 9 -135 204 -177 276 -65
112 -155 298 -210 434 -85 210 -176 529 -198 695 -3 28 -8 53 -10 56 -4 7 -20
141 -31 259 -10 100 -10 462 0 575 42 500 190 980 438 1425 207 370 533 752
867 1014 34 27 62 52 62 56 0 5 -150 141 -324 293 -12 10 -50 44 -85 75 -82
73 -86 77 -161 142 -35 30 -73 64 -85 75 -11 11 -54 49 -95 85 -41 36 -80 69
-86 75 -6 5 -39 35 -74 65 -35 30 -71 62 -79 71 -9 8 -72 64 -141 124 -69 61
-130 114 -136 120 -6 5 -41 37 -79 70 -37 33 -73 65 -79 70 -6 6 -47 41 -91
80 -44 38 -82 72 -85 75 -3 3 -77 68 -165 145 -87 77 -166 147 -175 155 -15
14 -84 75 -210 185 -30 27 -57 51 -60 54 -6 8 -229 202 -252 219 -14 11 -30 2
-120 -66 -183 -140 -353 -245 -563 -347 -420 -205 -805 -310 -1284 -351 -77
-6 -401 -6 -471 0 -101 10 -183 18 -205 21 -11 1 -45 6 -75 9 -156 21 -438 91
-628 157 -350 123 -751 343 -1003 551 -26 21 -50 38 -53 38 -3 0 -32 -20 -63
-45 -293 -228 -660 -429 -1003 -547 -47 -16 -92 -31 -100 -33 -8 -2 -53 -15
-100 -29 -47 -14 -96 -27 -110 -30 -14 -2 -32 -7 -40 -10 -8 -3 -28 -8 -45
-11 -267 -48 -285 -50 -395 -60 -36 -3 -78 -8 -95 -10 -41 -6 -429 -6 -485 -1
-25 3 -79 7 -120 11 -41 3 -82 8 -90 10 -8 2 -33 6 -55 10 -433 62 -875 219
-1258 448 -127 76 -383 253 -407 282 -18 22 -26 19 -78 -27z m4547 -447 c431
-281 918 -479 1396 -567 50 -9 97 -17 105 -19 8 -2 44 -6 80 -10 36 -4 67 -8
70 -10 43 -26 757 -26 893 1 11 2 57 8 101 14 67 9 280 51 336 65 8 2 43 11
77 19 104 26 381 121 498 171 238 102 506 248 665 361 l45 32 30 -26 c17 -15
62 -54 100 -87 37 -33 80 -71 94 -83 14 -13 53 -47 85 -75 33 -29 64 -56 70
-62 45 -41 214 -190 391 -345 116 -101 212 -187 215 -190 3 -3 41 -36 85 -75
99 -87 122 -106 161 -142 42 -38 84 -75 179 -158 44 -38 82 -72 85 -75 3 -3
59 -52 125 -110 66 -58 122 -107 125 -110 3 -3 58 -52 123 -109 l117 -104 -93
-96 c-293 -301 -503 -590 -685 -941 -101 -195 -149 -309 -227 -534 l-62 -179
-5288 0 -5289 0 -61 179 c-70 205 -163 423 -238 559 -50 91 -99 174 -149 255
-52 84 -81 126 -146 219 -63 89 -240 297 -346 406 l-126 130 33 30 c41 38 165
148 237 210 30 26 89 78 130 115 79 70 303 268 430 379 41 36 77 68 80 71 3 3
102 91 220 194 118 104 220 194 225 200 6 6 26 24 45 40 29 23 135 117 184
161 20 19 330 293 365 323 l34 30 86 -58 c213 -142 479 -279 731 -377 205 -79
537 -171 715 -198 17 -2 59 -9 95 -14 189 -29 296 -36 555 -36 202 0 342 6
425 19 14 2 48 7 75 11 108 14 121 16 145 21 14 2 36 6 50 9 371 67 873 253
1175 434 33 20 71 42 85 49 14 7 70 44 125 81 55 38 102 69 104 70 2 0 52 -30
110 -68z m5108 -3795 c-3 -7 -13 -65 -22 -127 -8 -63 -18 -127 -20 -144 -10
-69 -19 -261 -19 -410 0 -153 11 -392 19 -418 2 -7 6 -40 10 -74 3 -35 7 -68
10 -75 2 -7 6 -31 9 -53 19 -149 85 -413 152 -612 97 -289 217 -539 399 -832
26 -41 52 -80 86 -126 61 -82 155 -256 227 -415 26 -59 111 -292 129 -355 39
-137 61 -234 78 -335 3 -19 10 -57 15 -85 41 -217 46 -643 10 -895 -38 -271
-108 -532 -205 -770 -62 -152 -166 -359 -216 -432 -11 -14 -19 -29 -19 -32 0
-13 -145 -219 -223 -316 -277 -348 -654 -654 -1042 -847 -264 -132 -453 -193
-905 -292 -184 -40 -215 -46 -279 -57 -18 -3 -43 -8 -55 -10 -11 -2 -34 -6
-51 -9 -16 -3 -43 -7 -60 -10 -25 -4 -82 -13 -190 -30 -72 -10 -188 -26 -230
-30 -27 -3 -66 -8 -85 -10 -19 -3 -60 -8 -90 -10 -30 -2 -84 -7 -120 -10 -124
-12 -155 -14 -285 -20 -317 -14 -385 -19 -555 -46 -172 -27 -182 -29 -205 -36
-11 -4 -27 -7 -35 -8 -33 -5 -217 -58 -323 -94 -224 -76 -490 -200 -657 -306
-182 -116 -348 -234 -410 -293 -48 -46 -50 -45 -150 35 -317 252 -679 450
-1051 573 -103 34 -298 87 -354 96 -22 3 -42 7 -45 9 -10 6 -182 34 -248 40
-35 4 -72 8 -82 10 -17 3 -61 6 -375 21 -121 5 -169 9 -280 19 -33 3 -82 8
-110 11 -27 2 -66 6 -85 9 -19 2 -60 7 -90 10 -81 9 -125 14 -225 30 -49 8
-112 17 -140 21 -50 6 -67 9 -115 19 -14 2 -40 7 -59 10 -80 13 -335 66 -456
95 -71 17 -137 32 -146 35 -271 63 -504 153 -752 291 -92 52 -312 195 -362
237 -11 9 -49 39 -85 67 -180 142 -382 352 -536 555 -147 194 -297 455 -387
675 -72 174 -157 446 -174 555 -2 17 -8 46 -13 65 -15 61 -35 216 -47 355 -12
156 -6 506 11 601 2 10 7 46 10 79 4 33 14 94 23 135 8 41 17 84 19 95 22 118
88 335 151 495 52 132 160 350 213 430 20 30 68 102 107 160 230 343 405 739
513 1163 37 145 77 360 86 457 2 25 6 54 9 65 18 81 25 500 12 692 -8 105 -29
282 -45 365 -5 26 -7 50 -4 53 3 3 2350 5 5215 5 4427 0 5208 -2 5204 -14z"/>
<path d="M2229 12630 l-23 -6 0 -704 0 -705 147 -3 147 -3 0 261 0 260 118 0
117 0 55 -111 c30 -61 89 -176 131 -257 l76 -147 157 -3 c175 -3 175 -3 133
66 -13 20 -43 75 -66 122 -24 47 -47 90 -51 95 -15 21 -161 307 -158 309 2 2
24 15 49 30 140 80 207 216 196 395 -15 243 -168 378 -452 397 -116 8 -547 11
-576 4z m601 -250 c89 -24 143 -114 135 -222 -7 -90 -54 -151 -138 -178 -30
-9 -204 -16 -304 -11 l-23 1 0 208 c0 115 2 211 4 213 10 10 285 1 326 -11z"/>
<path d="M3592 12632 l-23 -3 1 -502 c1 -550 4 -581 59 -683 65 -123 187 -211
331 -239 59 -12 247 -14 292 -3 24 5 52 11 63 14 11 2 52 19 91 39 81 40 167
124 202 197 50 106 51 128 52 670 l0 508 -32 1 c-115 2 -251 -1 -256 -5 -3 -3
-6 -235 -6 -514 l-1 -509 -30 -59 c-26 -50 -38 -63 -85 -86 -63 -32 -132 -40
-206 -23 -79 18 -119 48 -151 113 l-28 57 -1 507 c0 279 -3 510 -6 513 -6 6
-230 12 -266 7z"/>
<path d="M5033 12632 l-33 -3 0 -710 0 -710 147 3 147 3 0 458 c0 251 3 457 6
457 4 0 18 -19 31 -43 13 -24 139 -231 279 -460 l254 -417 147 0 146 0 0 710
0 710 -29 1 c-15 0 -66 0 -113 0 -47 0 -100 0 -118 0 l-32 -1 0 -465 c0 -359
-2 -462 -11 -450 -10 14 -155 249 -205 333 -13 23 -136 225 -313 514 -36 59
-45 68 -71 68 -16 1 -68 2 -115 3 -47 1 -100 1 -117 -1z"/>
<path d="M7048 12632 c-16 -2 -28 -5 -28 -8 0 -3 22 -105 50 -227 56 -252 245
-1105 255 -1154 l7 -33 149 0 c146 0 149 0 154 23 4 17 64 267 91 377 2 8 8
33 14 55 11 47 81 335 84 350 14 66 30 125 35 125 5 0 101 -376 117 -455 1 -5
27 -115 59 -242 l57 -233 148 0 148 0 7 38 c5 20 9 43 11 51 7 38 26 120 34
151 5 19 23 100 40 180 17 80 37 172 45 205 21 89 73 326 79 355 2 14 20 95
40 180 19 85 37 166 39 180 3 14 8 37 12 53 l7 27 -58 1 c-33 0 -98 1 -147 2
-48 1 -87 0 -88 -3 -1 -12 -12 -66 -50 -265 -22 -115 -47 -246 -55 -290 -16
-89 -21 -118 -29 -155 -9 -44 -15 -74 -21 -109 -3 -18 -8 -43 -10 -55 -2 -11
-7 -37 -10 -56 -6 -35 -11 -61 -14 -70 -1 -6 -32 122 -80 330 -17 74 -38 162
-45 195 -62 266 -98 424 -102 445 -2 13 -6 26 -7 28 -8 7 -239 3 -246 -5 -4
-4 -17 -48 -28 -98 -12 -49 -46 -198 -77 -330 -31 -132 -58 -251 -61 -265 -3
-14 -7 -31 -10 -39 -2 -8 -7 -28 -10 -45 -10 -61 -52 -221 -54 -206 -1 8 -3
22 -5 30 -23 112 -35 171 -40 200 -3 19 -10 55 -15 80 -5 25 -26 131 -46 235
-79 421 -82 436 -88 442 -5 5 -221 9 -258 5z"/>
<path d="M9348 12630 c-18 -5 -33 -34 -84 -170 -111 -293 -167 -444 -185 -495
-22 -65 -256 -693 -269 -723 -6 -13 -10 -25 -10 -28 0 -2 70 -3 156 -2 l155 3
47 142 47 143 55 1 c299 5 455 1 463 -12 4 -8 27 -72 51 -144 l44 -130 156 -3
c86 -1 156 0 156 2 0 3 -4 15 -10 28 -14 34 -79 208 -160 428 -40 107 -78 209
-85 225 -7 17 -70 185 -140 375 -71 190 -131 349 -135 353 -8 9 -218 15 -252
7z m207 -630 c47 -139 85 -255 85 -257 0 -2 -79 -3 -175 -3 -96 0 -175 3 -175
6 0 4 140 429 166 503 2 8 6 12 9 10 2 -3 42 -119 90 -259z"/>
<path d="M10393 12632 c-13 -2 -23 -6 -24 -10 0 -4 -1 -322 -2 -707 l0 -700
458 0 458 0 -1 108 c0 60 -3 112 -7 115 -3 4 -142 7 -308 7 l-302 0 -3 593
c-2 463 -5 592 -15 592 -95 4 -237 4 -254 2z"/>
<path d="M11583 12632 l-33 -3 0 -710 0 -709 145 0 c109 0 145 3 146 13 0 6 1
98 1 203 l1 190 76 82 76 82 180 -283 181 -282 177 -3 177 -2 -79 117 c-43 65
-140 213 -216 328 -75 116 -157 239 -181 274 -33 49 -41 68 -34 81 8 15 30 43
133 170 7 8 48 60 91 115 44 55 82 102 86 105 3 3 27 33 53 67 26 34 53 68 60
75 6 7 25 30 40 51 l28 37 -33 1 c-36 0 -232 0 -289 -1 -36 0 -41 -6 -217
-233 -100 -129 -210 -272 -245 -320 l-65 -87 1 315 c0 174 -3 318 -5 321 -7 6
-206 11 -255 6z"/>
<path d="M3450 8410 c-122 -16 -158 -22 -235 -41 -309 -77 -568 -251 -721
-485 -156 -240 -214 -558 -160 -874 23 -133 107 -312 198 -421 97 -116 175
-183 307 -264 l54 -33 -59 -30 c-240 -122 -470 -377 -546 -607 -51 -153 -62
-227 -62 -395 0 -194 24 -329 87 -480 100 -244 287 -440 546 -572 87 -44 270
-109 346 -123 17 -3 71 -13 120 -22 70 -14 146 -17 340 -17 217 0 267 3 380
23 315 56 546 170 740 365 224 225 326 500 319 854 -3 178 -29 296 -94 438
-102 222 -290 416 -525 540 -45 24 -48 28 -32 38 108 64 187 125 263 201 197
197 289 414 298 704 4 99 -17 290 -35 340 -6 14 -9 26 -8 26 1 0 -3 18 -10 40
-98 315 -327 557 -659 694 -74 31 -244 77 -317 86 -22 3 -69 9 -105 14 -76 10
-350 11 -430 1z m340 -685 c176 -30 332 -198 366 -396 10 -56 11 -209 2 -274
-29 -198 -156 -360 -326 -411 -81 -25 -218 -27 -305 -4 -115 29 -181 72 -250
163 -81 106 -111 219 -110 402 2 376 251 583 623 520z m85 -1819 c273 -91 413
-348 373 -688 -37 -320 -269 -508 -610 -494 -106 4 -126 7 -187 27 -131 43
-253 145 -310 260 -52 107 -70 197 -66 329 3 124 7 148 32 225 64 196 234 335
453 368 14 2 72 3 130 2 83 -2 122 -8 185 -29z"/>
<path d="M10890 8404 c-107 -15 -104 -14 -219 -44 -235 -60 -465 -192 -636
-364 -240 -241 -370 -541 -389 -893 l-5 -83 425 0 424 0 1 28 c0 15 2 34 3 42
2 8 6 41 10 74 18 167 97 331 207 430 50 45 170 111 219 122 118 24 271 24
356 -1 189 -55 317 -199 360 -405 72 -347 -73 -656 -555 -1179 -53 -57 -109
-118 -125 -135 -15 -17 -83 -89 -151 -161 -67 -71 -137 -146 -155 -165 -18
-19 -83 -89 -145 -155 -126 -134 -136 -145 -321 -341 -72 -76 -143 -152 -158
-169 -16 -16 -85 -90 -154 -164 -70 -73 -133 -142 -141 -153 -11 -16 -14 -76
-13 -297 0 -152 1 -280 1 -286 1 -10 2905 -14 2915 -4 5 4 8 338 7 581 l-1 98
-914 2 -915 3 102 106 c56 58 170 177 252 264 83 87 168 177 190 201 22 23
103 108 180 189 77 82 156 165 175 185 435 457 685 851 759 1196 29 133 33
168 33 299 -1 225 -46 420 -137 594 -56 106 -78 134 -183 238 -72 72 -188 163
-207 163 -4 0 -19 8 -33 18 -78 55 -345 141 -483 157 -30 4 -88 10 -129 15
-105 12 -337 9 -450 -6z"/>
<path d="M7930 8360 c-14 -4 -146 -51 -295 -105 -334 -120 -614 -220 -810
-290 -82 -29 -208 -74 -280 -100 -71 -26 -183 -66 -247 -88 l-118 -42 0 -342
c0 -189 3 -343 6 -343 4 0 219 66 478 146 259 81 483 150 499 154 l27 9 0
-1629 c0 -1542 1 -1628 18 -1632 13 -3 799 -2 823 1 4 1 6 960 5 2133 l-1
2132 -40 2 c-22 1 -51 -2 -65 -6z"/>
<path d="M7470 3577 c-46 -15 -112 -83 -126 -128 -24 -78 6 -176 68 -222 111
-83 248 -47 313 82 25 49 16 140 -19 190 -49 71 -154 105 -236 78z"/>
<path d="M7062 3100 c-79 -22 -116 -48 -249 -176 l-108 -103 68 -66 c37 -36
71 -65 75 -65 4 0 48 41 97 91 108 108 139 129 196 130 96 3 92 18 42 -153
-50 -177 -55 -245 -24 -307 43 -84 117 -116 396 -173 44 -9 98 -40 162 -92 10
-8 68 -55 129 -105 l112 -90 68 63 68 63 -60 59 c-69 70 -202 188 -259 230
-46 34 -111 63 -207 94 -85 27 -85 28 -41 198 l26 103 50 -50 c105 -107 197
-125 355 -72 133 46 191 67 198 74 6 5 -43 156 -55 168 -3 4 -60 -13 -126 -37
-66 -24 -133 -44 -148 -44 -23 0 -47 19 -121 94 -51 52 -111 103 -134 115
-112 57 -387 84 -510 51z"/>
<path d="M7150 2261 c-42 -83 -130 -131 -270 -147 -30 -3 -56 -7 -57 -7 -1 -1
7 -27 18 -57 55 -158 46 -150 137 -124 198 55 255 85 313 165 66 92 85 127 74
138 -12 11 -165 71 -182 71 -7 0 -22 -18 -33 -39z"/>
</g>
</svg>
